HIERARCHY
ROOT joint_0
{
	OFFSET 0.000000 0.000000 0.000000
	CHANNELS 6 Xposition Yposition Zposition Zrotation Yrotation Xrotation 
	JOINT joint_1
	{
		OFFSET 5.091736 1.614004 124.993042
		CHANNELS 3 Zrotation Yrotation Xrotation
		JOINT joint_2
		{
			OFFSET -7.754517 4.363039 113.797974
			CHANNELS 3 Zrotation Yrotation Xrotation
			JOINT joint_3
			{
				OFFSET -8.706238 5.370684 113.558960
				CHANNELS 3 Zrotation Yrotation Xrotation
				JOINT joint_4
				{
					OFFSET 2.800659 5.843341 158.209106
					CHANNELS 3 Zrotation Yrotation Xrotation
					JOINT joint_5
					{
						OFFSET 20.525452 8.617594 92.185913
						CHANNELS 3 Zrotation Yrotation Xrotation
						End Site
						{
							OFFSET 0.000000 0.000000 0.000000
						}
					}
				}
				JOINT joint_6
				{
					OFFSET -4.183167 -30.671114 90.057007
					CHANNELS 3 Zrotation Yrotation Xrotation
					JOINT joint_7
					{
						OFFSET -24.729675 -138.200195 -6.097900
						CHANNELS 3 Zrotation Yrotation Xrotation
						JOINT joint_8
						{
							OFFSET 16.966858 -51.567780 -315.633057
							CHANNELS 3 Zrotation Yrotation Xrotation
							JOINT joint_9
							{
								OFFSET 129.835388 -40.459091 176.646973
								CHANNELS 3 Zrotation Yrotation Xrotation
								End Site
								{
									OFFSET 0.000000 0.000000 0.000000
								}
							}
						}
					}
				}
				JOINT joint_10
				{
					OFFSET 7.338745 37.199406 87.346069
					CHANNELS 3 Zrotation Yrotation Xrotation
					JOINT joint_11
					{
						OFFSET 20.327698 137.488367 -20.779053
						CHANNELS 3 Zrotation Yrotation Xrotation
						JOINT joint_12
						{
							OFFSET 150.763062 48.206573 -278.419922
							CHANNELS 3 Zrotation Yrotation Xrotation
							JOINT joint_13
							{
								OFFSET 12.571289 -162.355251 152.253906
								CHANNELS 3 Zrotation Yrotation Xrotation
								End Site
								{
									OFFSET 0.000000 0.000000 0.000000
								}
							}
						}
					}
				}
			}
		}
	}
	JOINT joint_14
	{
		OFFSET -7.600342 -77.970001 -95.010986
		CHANNELS 3 Zrotation Yrotation Xrotation
		JOINT joint_15
		{
			OFFSET -2.666199 -21.455009 -443.700989
			CHANNELS 3 Zrotation Yrotation Xrotation
			JOINT joint_16
			{
				OFFSET -22.487976 -19.310196 -481.059006
				CHANNELS 3 Zrotation Yrotation Xrotation
				JOINT joint_17
				{
					OFFSET 177.776611 65.723053 -82.445997
					CHANNELS 3 Zrotation Yrotation Xrotation
					End Site
					{
						OFFSET 0.000000 0.000000 0.000000
					}
				}
			}
		}
	}
	JOINT joint_18
	{
		OFFSET 17.063904 75.900681 -95.447021
		CHANNELS 3 Zrotation Yrotation Xrotation
		JOINT joint_19
		{
			OFFSET -21.510803 8.101997 -443.629944
			CHANNELS 3 Zrotation Yrotation Xrotation
			JOINT joint_20
			{
				OFFSET -7.473022 -28.501774 -481.230011
				CHANNELS 3 Zrotation Yrotation Xrotation
				JOINT joint_21
				{
					OFFSET 177.760559 -64.115177 -83.737001
					CHANNELS 3 Zrotation Yrotation Xrotation
					End Site
					{
						OFFSET 0.000000 0.000000 0.000000
					}
				}
			}
		}
	}
}
MOTION
Frames: 10
Frame Time: 0.016667
507.055359 -64.006134 1121.729004 13.548038 -0.399738 0.969678 -0.033153 1.301964 1.689302 -0.104987 -0.112681 -0.334433 -0.062708 0.307751 0.319379 -1.094474 1.864585 3.922706 0.000000 0.000000 0.000000 1.392919 3.489210 6.262307 16.757668 1.031549 -1.201305 -175.678550 43.035469 179.617505 0.000000 0.000000 0.000000 -4.580944 18.920054 -2.463718 -16.436941 6.845332 1.245419 50.618809 -20.887510 111.777309 0.000000 0.000000 0.000000 -11.595498 4.371062 -0.704549 -11.396683 -0.069636 0.956766 -10.981210 -5.494716 -3.059733 0.000000 0.000000 0.000000 1.086145 -1.573102 0.824572 1.089346 5.729709 3.656736 1.998876 -4.991920 -0.867912 0.000000 0.000000 0.000000 
519.632141 -63.439587 1121.332031 13.630912 -1.099995 0.918728 -0.084723 1.714076 1.828211 -0.155567 -0.139056 -0.342331 -0.115477 0.380691 0.338289 -0.991893 1.011134 3.792070 0.000000 0.000000 0.000000 2.647892 5.201500 6.229331 19.258854 2.555018 -1.113323 -172.738670 45.815394 -179.108055 0.000000 0.000000 0.000000 -4.493012 18.778786 -1.664826 -12.015623 8.987785 -1.289000 51.249168 -21.381294 108.082643 0.000000 0.000000 0.000000 -11.520588 4.868120 -0.896379 -11.404241 1.820046 0.660923 -10.903076 -6.423664 -2.668822 0.000000 0.000000 0.000000 1.040357 0.270960 1.441143 1.060726 5.080291 2.992766 1.889667 -5.289171 -1.023989 0.000000 0.000000 0.000000 
533.394165 -63.014431 1121.569946 13.884235 -1.897502 0.861210 -0.201792 2.178372 1.917645 -0.267736 -0.177999 -0.341094 -0.230961 0.463810 0.363433 -0.936080 0.400562 3.755175 0.000000 0.000000 0.000000 3.624550 6.737165 6.118073 21.496990 3.785800 -0.966391 -170.193048 48.984561 -176.453819 0.000000 0.000000 0.000000 -4.472292 18.316847 -1.107993 -6.789498 11.421856 -3.369852 52.716968 -20.899532 103.828172 0.000000 0.000000 0.000000 -11.515129 5.445530 -0.929858 -11.483198 3.807113 0.096828 -10.930850 -7.132898 -2.400407 0.000000 0.000000 0.000000 0.867942 1.795342 1.822348 0.903368 5.249937 2.843364 1.769965 -5.678432 -1.219871 0.000000 0.000000 0.000000 
547.140137 -63.206886 1123.128052 14.559462 -2.592388 0.787037 -0.465636 2.512422 1.910313 -0.527142 -0.227735 -0.359005 -0.489742 0.522140 0.399837 -0.986003 0.413205 3.930693 0.000000 0.000000 0.000000 3.660101 7.572887 5.716643 22.481608 4.214315 -0.623443 -169.175747 52.553788 -172.417196 0.000000 0.000000 0.000000 -4.286691 17.601415 -0.910289 -1.726826 13.384221 -4.529958 55.143543 -19.396064 99.760845 0.000000 0.000000 0.000000 -11.730073 6.138240 -0.573871 -11.747324 5.256091 -0.837024 -11.207022 -7.267205 -2.451702 0.000000 0.000000 0.000000 0.434849 2.290684 1.649424 0.436715 6.935454 3.829795 1.579194 -6.212769 -1.504006 0.000000 0.000000 0.000000 
561.676025 -63.783607 1125.676025 15.580534 -3.269854 0.630973 -0.866890 2.742917 1.921814 -0.929188 -0.256564 -0.423003 -0.883796 0.569604 0.444255 -1.111518 0.859809 4.254426 0.000000 0.000000 0.000000 3.062378 7.878966 5.193472 22.248767 4.169705 -0.303648 -169.525685 57.106056 -167.897749 0.000000 0.000000 0.000000 -4.057529 16.749622 -0.910422 3.396514 15.050646 -5.120617 58.210339 -16.848068 95.643679 0.000000 0.000000 0.000000 -12.114721 6.962784 0.143436 -12.154429 6.424443 -2.100316 -11.676140 -6.954130 -2.745955 0.000000 0.000000 0.000000 -0.218592 2.160312 1.120691 -0.287218 9.715741 5.650669 1.371911 -6.723195 -1.791884 0.000000 0.000000 0.000000 
576.132080 -64.437508 1128.722046 16.535465 -3.974919 0.551735 -1.142345 3.139763 1.819189 -1.172383 -0.344936 -0.406894 -1.132195 0.639225 0.460946 -1.255911 1.565333 4.550067 0.000000 0.000000 0.000000 2.391752 7.696598 4.412815 21.718832 3.941615 -0.364115 -170.290142 62.164333 -164.450787 0.000000 0.000000 0.000000 -3.763858 15.478156 -0.878804 8.513199 16.214278 -5.228003 61.941704 -12.703308 91.422785 0.000000 0.000000 0.000000 -12.472883 7.412131 0.819743 -12.562287 8.139574 -3.568378 -12.175952 -6.406517 -3.126585 0.000000 0.000000 0.000000 -0.884784 1.337660 0.386917 -1.001024 13.723218 7.453845 1.437731 -6.842580 -1.822431 0.000000 0.000000 0.000000 
589.656555 -64.957901 1132.185059 17.163699 -4.690050 0.636402 -1.086084 3.795957 1.597103 -1.020303 -0.505748 -0.267778 -1.006638 0.777121 0.423871 -1.394491 2.467214 4.741756 0.000000 0.000000 0.000000 2.048273 7.036884 3.395939 21.758697 3.798224 -1.306478 -170.714307 66.688738 -162.287392 0.000000 0.000000 0.000000 -3.395466 13.487099 -0.918020 13.352435 16.489051 -4.740307 66.511717 -6.312755 87.234691 0.000000 0.000000 0.000000 -12.656436 6.936398 1.257045 -12.873576 11.196783 -5.285313 -12.632855 -5.601193 -3.559844 0.000000 0.000000 0.000000 -1.439146 -0.558162 -0.486068 -1.522348 19.462559 8.682826 2.072179 -5.982891 -1.258106 0.000000 0.000000 0.000000 
602.602417 -65.452553 1136.248047 17.619964 -5.284949 0.706685 -0.802824 4.367887 1.574604 -0.590005 -0.586318 -0.197636 -0.596172 0.982339 0.352221 -1.561677 3.617494 4.939674 0.000000 0.000000 0.000000 1.878608 6.001749 2.502948 22.156162 3.783136 -3.420228 -171.037339 70.667392 -160.646426 0.000000 0.000000 0.000000 -2.990409 10.960623 -1.405601 17.203172 15.648691 -3.635601 71.689300 2.028301 83.626241 0.000000 0.000000 0.000000 -12.728069 5.636083 1.766635 -13.119928 15.242889 -7.278258 -13.156417 -4.140459 -4.230742 0.000000 0.000000 0.000000 -2.002401 -3.587012 -1.376009 -1.963493 26.683826 9.408981 3.274664 -3.521931 0.107534 0.000000 0.000000 0.000000 
616.025024 -66.022995 1139.864990 18.008465 -5.792364 0.766523 -0.512082 4.851666 1.686861 -0.102123 -0.602949 -0.216825 -0.115727 1.177337 0.291603 -1.741811 4.761377 5.174168 0.000000 0.000000 0.000000 1.722631 4.969883 1.627833 22.126556 3.638590 -5.941460 -171.670393 75.156137 -159.565062 0.000000 0.000000 0.000000 -2.678949 8.398714 -1.951940 19.667939 14.466739 -2.402856 76.356149 10.936038 80.907439 0.000000 0.000000 0.000000 -12.813663 4.385448 2.204123 -13.361580 19.028186 -8.975112 -13.767395 -2.290514 -5.063657 0.000000 0.000000 0.000000 -2.681918 -6.738564 -2.033837 -2.498214 33.599967 9.485086 4.471529 -0.101587 1.783130 0.000000 0.000000 0.000000 
630.545654 -66.774673 1142.183960 18.592833 -6.300576 0.912734 -0.433609 5.371761 1.657855 0.253664 -0.605083 -0.200602 0.238016 1.287781 0.270481 -1.907282 5.763178 5.398475 0.000000 0.000000 0.000000 1.394280 3.996742 0.600743 21.256521 3.112311 -8.253867 -172.731823 81.254300 -159.314250 0.000000 0.000000 0.000000 -2.575627 6.026026 -1.986689 21.095780 13.746985 -1.393847 80.018591 19.792726 78.534772 0.000000 0.000000 0.000000 -13.080781 3.733355 2.331151 -13.718603 21.922131 -10.042857 -14.487894 -0.658679 -5.863518 0.000000 0.000000 0.000000 -3.641592 -9.590399 -2.467670 -3.363578 39.836928 8.984339 5.007259 3.362256 3.175138 0.000000 0.000000 0.000000 
